<mxfile host="app.diagrams.net" modified="2021-10-08T15:36:08.801Z" agent="5.0 (Windows NT 10.0; Win64; x64) AppleWebKit/537.36 (KHTML, like Gecko) Chrome/94.0.4606.71 Safari/537.36" etag="-q7tQMWaj_q6u5V6izut" version="15.3.8" type="github">
  <diagram id="YIOcWbmcq0rwRaV3Wp_Z" name="Page-1">
    <mxGraphModel dx="2966" dy="1589" grid="1" gridSize="10" guides="1" tooltips="1" connect="1" arrows="1" fold="1" page="1" pageScale="1" pageWidth="827" pageHeight="1169" math="0" shadow="0">
      <root>
        <mxCell id="0" />
        <mxCell id="1" parent="0" />
        <mxCell id="TQv8Dwz0qTCDixVT1cA2-1" value="&lt;font style=&quot;font-size: 15px&quot;&gt;Web&amp;nbsp; tạo cho giảng viên&lt;/font&gt;" style="rounded=0;whiteSpace=wrap;html=1;" vertex="1" parent="1">
          <mxGeometry x="380" width="240" height="80" as="geometry" />
        </mxCell>
        <mxCell id="TQv8Dwz0qTCDixVT1cA2-2" value="Xử lý thông tin sinh viên" style="rounded=0;whiteSpace=wrap;html=1;" vertex="1" parent="1">
          <mxGeometry x="40" y="160" width="120" height="60" as="geometry" />
        </mxCell>
        <mxCell id="TQv8Dwz0qTCDixVT1cA2-3" value="Xử lý lịch học" style="rounded=0;whiteSpace=wrap;html=1;" vertex="1" parent="1">
          <mxGeometry x="240" y="160" width="120" height="60" as="geometry" />
        </mxCell>
        <mxCell id="TQv8Dwz0qTCDixVT1cA2-4" value="Xử lý thông báo" style="rounded=0;whiteSpace=wrap;html=1;" vertex="1" parent="1">
          <mxGeometry x="440" y="160" width="120" height="60" as="geometry" />
        </mxCell>
        <mxCell id="TQv8Dwz0qTCDixVT1cA2-5" value="Xử lý lịch thi" style="rounded=0;whiteSpace=wrap;html=1;" vertex="1" parent="1">
          <mxGeometry x="640" y="160" width="120" height="60" as="geometry" />
        </mxCell>
        <mxCell id="TQv8Dwz0qTCDixVT1cA2-6" value="Xử lý điểm" style="rounded=0;whiteSpace=wrap;html=1;" vertex="1" parent="1">
          <mxGeometry x="840" y="160" width="120" height="60" as="geometry" />
        </mxCell>
        <mxCell id="TQv8Dwz0qTCDixVT1cA2-7" value="Nhập thông tin" style="rounded=1;whiteSpace=wrap;html=1;" vertex="1" parent="1">
          <mxGeometry x="80" y="240" width="120" height="60" as="geometry" />
        </mxCell>
        <mxCell id="TQv8Dwz0qTCDixVT1cA2-8" value="Tạo tài khoản" style="rounded=1;whiteSpace=wrap;html=1;" vertex="1" parent="1">
          <mxGeometry x="80" y="400" width="120" height="60" as="geometry" />
        </mxCell>
        <mxCell id="TQv8Dwz0qTCDixVT1cA2-9" value="Xác minh thông tin" style="rounded=1;whiteSpace=wrap;html=1;" vertex="1" parent="1">
          <mxGeometry x="80" y="320" width="120" height="60" as="geometry" />
        </mxCell>
        <mxCell id="TQv8Dwz0qTCDixVT1cA2-10" value="" style="endArrow=classic;html=1;exitX=0;exitY=0.5;exitDx=0;exitDy=0;entryX=0;entryY=0.5;entryDx=0;entryDy=0;" edge="1" parent="1" source="TQv8Dwz0qTCDixVT1cA2-2" target="TQv8Dwz0qTCDixVT1cA2-7">
          <mxGeometry width="50" height="50" relative="1" as="geometry">
            <mxPoint x="390" y="350" as="sourcePoint" />
            <mxPoint x="440" y="300" as="targetPoint" />
            <Array as="points">
              <mxPoint x="10" y="190" />
              <mxPoint x="10" y="270" />
            </Array>
          </mxGeometry>
        </mxCell>
        <mxCell id="TQv8Dwz0qTCDixVT1cA2-12" value="" style="endArrow=classic;html=1;entryX=0;entryY=0.5;entryDx=0;entryDy=0;exitX=0;exitY=0.5;exitDx=0;exitDy=0;" edge="1" parent="1" source="TQv8Dwz0qTCDixVT1cA2-2" target="TQv8Dwz0qTCDixVT1cA2-9">
          <mxGeometry width="50" height="50" relative="1" as="geometry">
            <mxPoint x="10" y="220" as="sourcePoint" />
            <mxPoint x="350" y="210" as="targetPoint" />
            <Array as="points">
              <mxPoint x="10" y="190" />
              <mxPoint x="10" y="350" />
            </Array>
          </mxGeometry>
        </mxCell>
        <mxCell id="TQv8Dwz0qTCDixVT1cA2-13" value="" style="endArrow=classic;html=1;entryX=0;entryY=0.5;entryDx=0;entryDy=0;" edge="1" parent="1" target="TQv8Dwz0qTCDixVT1cA2-8">
          <mxGeometry width="50" height="50" relative="1" as="geometry">
            <mxPoint x="40" y="190" as="sourcePoint" />
            <mxPoint x="350" y="210" as="targetPoint" />
            <Array as="points">
              <mxPoint x="10" y="190" />
              <mxPoint x="10" y="430" />
            </Array>
          </mxGeometry>
        </mxCell>
        <mxCell id="TQv8Dwz0qTCDixVT1cA2-14" value="" style="endArrow=classic;html=1;exitX=0.5;exitY=1;exitDx=0;exitDy=0;entryX=0.5;entryY=0;entryDx=0;entryDy=0;" edge="1" parent="1" source="TQv8Dwz0qTCDixVT1cA2-1" target="TQv8Dwz0qTCDixVT1cA2-2">
          <mxGeometry width="50" height="50" relative="1" as="geometry">
            <mxPoint x="300" y="140" as="sourcePoint" />
            <mxPoint x="350" y="90" as="targetPoint" />
            <Array as="points">
              <mxPoint x="500" y="120" />
              <mxPoint x="100" y="120" />
            </Array>
          </mxGeometry>
        </mxCell>
        <mxCell id="TQv8Dwz0qTCDixVT1cA2-15" value="" style="endArrow=classic;html=1;entryX=0.5;entryY=0;entryDx=0;entryDy=0;exitX=0.5;exitY=1;exitDx=0;exitDy=0;" edge="1" parent="1" source="TQv8Dwz0qTCDixVT1cA2-1" target="TQv8Dwz0qTCDixVT1cA2-3">
          <mxGeometry width="50" height="50" relative="1" as="geometry">
            <mxPoint x="300" y="140" as="sourcePoint" />
            <mxPoint x="350" y="90" as="targetPoint" />
            <Array as="points">
              <mxPoint x="500" y="120" />
              <mxPoint x="300" y="120" />
            </Array>
          </mxGeometry>
        </mxCell>
        <mxCell id="TQv8Dwz0qTCDixVT1cA2-16" value="" style="endArrow=classic;html=1;entryX=0.5;entryY=0;entryDx=0;entryDy=0;" edge="1" parent="1" target="TQv8Dwz0qTCDixVT1cA2-4">
          <mxGeometry width="50" height="50" relative="1" as="geometry">
            <mxPoint x="500" y="80" as="sourcePoint" />
            <mxPoint x="350" y="90" as="targetPoint" />
          </mxGeometry>
        </mxCell>
        <mxCell id="TQv8Dwz0qTCDixVT1cA2-17" value="" style="endArrow=classic;html=1;exitX=0.5;exitY=1;exitDx=0;exitDy=0;entryX=0.5;entryY=0;entryDx=0;entryDy=0;" edge="1" parent="1" source="TQv8Dwz0qTCDixVT1cA2-1" target="TQv8Dwz0qTCDixVT1cA2-5">
          <mxGeometry width="50" height="50" relative="1" as="geometry">
            <mxPoint x="570" y="140" as="sourcePoint" />
            <mxPoint x="620" y="90" as="targetPoint" />
            <Array as="points">
              <mxPoint x="500" y="120" />
              <mxPoint x="700" y="120" />
            </Array>
          </mxGeometry>
        </mxCell>
        <mxCell id="TQv8Dwz0qTCDixVT1cA2-18" value="" style="endArrow=classic;html=1;entryX=0.5;entryY=0;entryDx=0;entryDy=0;exitX=0.5;exitY=1;exitDx=0;exitDy=0;" edge="1" parent="1" source="TQv8Dwz0qTCDixVT1cA2-1" target="TQv8Dwz0qTCDixVT1cA2-6">
          <mxGeometry width="50" height="50" relative="1" as="geometry">
            <mxPoint x="570" y="140" as="sourcePoint" />
            <mxPoint x="620" y="90" as="targetPoint" />
            <Array as="points">
              <mxPoint x="500" y="120" />
              <mxPoint x="900" y="120" />
            </Array>
          </mxGeometry>
        </mxCell>
        <mxCell id="TQv8Dwz0qTCDixVT1cA2-19" value="Nhận lịch học" style="rounded=1;whiteSpace=wrap;html=1;" vertex="1" parent="1">
          <mxGeometry x="280" y="240" width="120" height="60" as="geometry" />
        </mxCell>
        <mxCell id="TQv8Dwz0qTCDixVT1cA2-20" value="Nhận thay đổi lịch học" style="rounded=1;whiteSpace=wrap;html=1;" vertex="1" parent="1">
          <mxGeometry x="280" y="320" width="120" height="60" as="geometry" />
        </mxCell>
        <mxCell id="TQv8Dwz0qTCDixVT1cA2-21" value="Nhận thông báo" style="rounded=1;whiteSpace=wrap;html=1;" vertex="1" parent="1">
          <mxGeometry x="480" y="240" width="120" height="60" as="geometry" />
        </mxCell>
        <mxCell id="TQv8Dwz0qTCDixVT1cA2-22" value="Nhận lịch thi" style="rounded=1;whiteSpace=wrap;html=1;" vertex="1" parent="1">
          <mxGeometry x="680" y="240" width="120" height="60" as="geometry" />
        </mxCell>
        <mxCell id="TQv8Dwz0qTCDixVT1cA2-23" value="" style="endArrow=classic;html=1;exitX=0;exitY=0.5;exitDx=0;exitDy=0;entryX=0;entryY=0.5;entryDx=0;entryDy=0;" edge="1" parent="1" source="TQv8Dwz0qTCDixVT1cA2-3" target="TQv8Dwz0qTCDixVT1cA2-19">
          <mxGeometry width="50" height="50" relative="1" as="geometry">
            <mxPoint x="480" y="250" as="sourcePoint" />
            <mxPoint x="530" y="200" as="targetPoint" />
            <Array as="points">
              <mxPoint x="220" y="190" />
              <mxPoint x="220" y="270" />
            </Array>
          </mxGeometry>
        </mxCell>
        <mxCell id="TQv8Dwz0qTCDixVT1cA2-24" value="" style="endArrow=classic;html=1;exitX=0;exitY=0.5;exitDx=0;exitDy=0;entryX=0;entryY=0.5;entryDx=0;entryDy=0;" edge="1" parent="1" source="TQv8Dwz0qTCDixVT1cA2-3" target="TQv8Dwz0qTCDixVT1cA2-20">
          <mxGeometry width="50" height="50" relative="1" as="geometry">
            <mxPoint x="480" y="250" as="sourcePoint" />
            <mxPoint x="530" y="200" as="targetPoint" />
            <Array as="points">
              <mxPoint x="220" y="190" />
              <mxPoint x="220" y="350" />
            </Array>
          </mxGeometry>
        </mxCell>
        <mxCell id="TQv8Dwz0qTCDixVT1cA2-25" value="" style="endArrow=classic;html=1;exitX=0;exitY=0.5;exitDx=0;exitDy=0;entryX=0;entryY=0.5;entryDx=0;entryDy=0;" edge="1" parent="1" source="TQv8Dwz0qTCDixVT1cA2-4" target="TQv8Dwz0qTCDixVT1cA2-21">
          <mxGeometry width="50" height="50" relative="1" as="geometry">
            <mxPoint x="440" y="450" as="sourcePoint" />
            <mxPoint x="490" y="400" as="targetPoint" />
            <Array as="points">
              <mxPoint x="420" y="190" />
              <mxPoint x="420" y="270" />
            </Array>
          </mxGeometry>
        </mxCell>
        <mxCell id="TQv8Dwz0qTCDixVT1cA2-26" value="" style="endArrow=classic;html=1;entryX=0;entryY=0.5;entryDx=0;entryDy=0;exitX=0;exitY=0.5;exitDx=0;exitDy=0;" edge="1" parent="1" source="TQv8Dwz0qTCDixVT1cA2-5" target="TQv8Dwz0qTCDixVT1cA2-22">
          <mxGeometry width="50" height="50" relative="1" as="geometry">
            <mxPoint x="410" y="250" as="sourcePoint" />
            <mxPoint x="460" y="200" as="targetPoint" />
            <Array as="points">
              <mxPoint x="620" y="190" />
              <mxPoint x="620" y="270" />
            </Array>
          </mxGeometry>
        </mxCell>
        <mxCell id="TQv8Dwz0qTCDixVT1cA2-27" value="Nhận điểm" style="rounded=1;whiteSpace=wrap;html=1;" vertex="1" parent="1">
          <mxGeometry x="880" y="240" width="120" height="60" as="geometry" />
        </mxCell>
        <mxCell id="TQv8Dwz0qTCDixVT1cA2-28" value="" style="endArrow=classic;html=1;entryX=0;entryY=0.5;entryDx=0;entryDy=0;exitX=0;exitY=0.5;exitDx=0;exitDy=0;" edge="1" parent="1" source="TQv8Dwz0qTCDixVT1cA2-6" target="TQv8Dwz0qTCDixVT1cA2-27">
          <mxGeometry width="50" height="50" relative="1" as="geometry">
            <mxPoint x="410" y="250" as="sourcePoint" />
            <mxPoint x="460" y="200" as="targetPoint" />
            <Array as="points">
              <mxPoint x="820" y="190" />
              <mxPoint x="820" y="270" />
            </Array>
          </mxGeometry>
        </mxCell>
        <mxCell id="TQv8Dwz0qTCDixVT1cA2-29" value="&lt;font style=&quot;font-size: 15px&quot;&gt;App Quản lý đào tạo cho giảng viên&lt;/font&gt;" style="rounded=0;whiteSpace=wrap;html=1;" vertex="1" parent="1">
          <mxGeometry x="297" y="650" width="270" height="80" as="geometry" />
        </mxCell>
        <mxCell id="TQv8Dwz0qTCDixVT1cA2-30" value="Xử lý thông tin giảng viên" style="rounded=0;whiteSpace=wrap;html=1;" vertex="1" parent="1">
          <mxGeometry x="67" y="830" width="120" height="60" as="geometry" />
        </mxCell>
        <mxCell id="TQv8Dwz0qTCDixVT1cA2-31" value="Xử lý lịch giảng dạy" style="rounded=0;whiteSpace=wrap;html=1;" vertex="1" parent="1">
          <mxGeometry x="267" y="830" width="120" height="60" as="geometry" />
        </mxCell>
        <mxCell id="TQv8Dwz0qTCDixVT1cA2-32" value="Xử lý thông báo" style="rounded=0;whiteSpace=wrap;html=1;" vertex="1" parent="1">
          <mxGeometry x="467" y="830" width="120" height="60" as="geometry" />
        </mxCell>
        <mxCell id="TQv8Dwz0qTCDixVT1cA2-33" value="Xử lý lịch thi" style="rounded=0;whiteSpace=wrap;html=1;" vertex="1" parent="1">
          <mxGeometry x="667" y="830" width="120" height="60" as="geometry" />
        </mxCell>
        <mxCell id="TQv8Dwz0qTCDixVT1cA2-35" value="Đăng nhập" style="rounded=1;whiteSpace=wrap;html=1;" vertex="1" parent="1">
          <mxGeometry x="107" y="910" width="120" height="60" as="geometry" />
        </mxCell>
        <mxCell id="TQv8Dwz0qTCDixVT1cA2-38" value="" style="endArrow=classic;html=1;exitX=0;exitY=0.5;exitDx=0;exitDy=0;entryX=0;entryY=0.5;entryDx=0;entryDy=0;" edge="1" parent="1" source="TQv8Dwz0qTCDixVT1cA2-30" target="TQv8Dwz0qTCDixVT1cA2-35">
          <mxGeometry width="50" height="50" relative="1" as="geometry">
            <mxPoint x="417" y="1020" as="sourcePoint" />
            <mxPoint x="467" y="970" as="targetPoint" />
            <Array as="points">
              <mxPoint x="37" y="860" />
              <mxPoint x="37" y="940" />
            </Array>
          </mxGeometry>
        </mxCell>
        <mxCell id="TQv8Dwz0qTCDixVT1cA2-41" value="" style="endArrow=classic;html=1;entryX=0.5;entryY=0;entryDx=0;entryDy=0;" edge="1" parent="1" target="TQv8Dwz0qTCDixVT1cA2-30">
          <mxGeometry width="50" height="50" relative="1" as="geometry">
            <mxPoint x="437" y="730" as="sourcePoint" />
            <mxPoint x="377" y="760" as="targetPoint" />
            <Array as="points">
              <mxPoint x="437" y="790" />
              <mxPoint x="127" y="790" />
            </Array>
          </mxGeometry>
        </mxCell>
        <mxCell id="TQv8Dwz0qTCDixVT1cA2-42" value="" style="endArrow=classic;html=1;entryX=0.5;entryY=0;entryDx=0;entryDy=0;exitX=0.516;exitY=1.016;exitDx=0;exitDy=0;exitPerimeter=0;" edge="1" parent="1" source="TQv8Dwz0qTCDixVT1cA2-29" target="TQv8Dwz0qTCDixVT1cA2-31">
          <mxGeometry width="50" height="50" relative="1" as="geometry">
            <mxPoint x="327" y="810" as="sourcePoint" />
            <mxPoint x="377" y="760" as="targetPoint" />
            <Array as="points">
              <mxPoint x="436" y="790" />
              <mxPoint x="327" y="790" />
            </Array>
          </mxGeometry>
        </mxCell>
        <mxCell id="TQv8Dwz0qTCDixVT1cA2-43" value="" style="endArrow=classic;html=1;entryX=0.5;entryY=0;entryDx=0;entryDy=0;" edge="1" parent="1" target="TQv8Dwz0qTCDixVT1cA2-32">
          <mxGeometry width="50" height="50" relative="1" as="geometry">
            <mxPoint x="437" y="730" as="sourcePoint" />
            <mxPoint x="377" y="760" as="targetPoint" />
            <Array as="points">
              <mxPoint x="437" y="790" />
              <mxPoint x="527" y="790" />
            </Array>
          </mxGeometry>
        </mxCell>
        <mxCell id="TQv8Dwz0qTCDixVT1cA2-44" value="" style="endArrow=classic;html=1;exitX=0.52;exitY=1.039;exitDx=0;exitDy=0;entryX=0.5;entryY=0;entryDx=0;entryDy=0;exitPerimeter=0;" edge="1" parent="1" source="TQv8Dwz0qTCDixVT1cA2-29" target="TQv8Dwz0qTCDixVT1cA2-33">
          <mxGeometry width="50" height="50" relative="1" as="geometry">
            <mxPoint x="597" y="810" as="sourcePoint" />
            <mxPoint x="647" y="760" as="targetPoint" />
            <Array as="points">
              <mxPoint x="437" y="790" />
              <mxPoint x="727" y="790" />
            </Array>
          </mxGeometry>
        </mxCell>
        <mxCell id="TQv8Dwz0qTCDixVT1cA2-46" value="Nhận lịch giảng dạy" style="rounded=1;whiteSpace=wrap;html=1;" vertex="1" parent="1">
          <mxGeometry x="307" y="910" width="120" height="60" as="geometry" />
        </mxCell>
        <mxCell id="TQv8Dwz0qTCDixVT1cA2-47" value="Thay đổi lịch dạy" style="rounded=1;whiteSpace=wrap;html=1;fillColor=#dae8fc;strokeColor=#6c8ebf;" vertex="1" parent="1">
          <mxGeometry x="307" y="990" width="120" height="60" as="geometry" />
        </mxCell>
        <mxCell id="TQv8Dwz0qTCDixVT1cA2-48" value="Nhận thông báo" style="rounded=1;whiteSpace=wrap;html=1;" vertex="1" parent="1">
          <mxGeometry x="507" y="910" width="120" height="60" as="geometry" />
        </mxCell>
        <mxCell id="TQv8Dwz0qTCDixVT1cA2-49" value="Nhận lịch thi" style="rounded=1;whiteSpace=wrap;html=1;fillColor=#dae8fc;strokeColor=#6c8ebf;" vertex="1" parent="1">
          <mxGeometry x="707" y="910" width="120" height="60" as="geometry" />
        </mxCell>
        <mxCell id="TQv8Dwz0qTCDixVT1cA2-50" value="" style="endArrow=classic;html=1;exitX=0;exitY=0.5;exitDx=0;exitDy=0;entryX=0;entryY=0.5;entryDx=0;entryDy=0;" edge="1" parent="1" source="TQv8Dwz0qTCDixVT1cA2-31" target="TQv8Dwz0qTCDixVT1cA2-46">
          <mxGeometry width="50" height="50" relative="1" as="geometry">
            <mxPoint x="507" y="920" as="sourcePoint" />
            <mxPoint x="557" y="870" as="targetPoint" />
            <Array as="points">
              <mxPoint x="247" y="860" />
              <mxPoint x="247" y="940" />
            </Array>
          </mxGeometry>
        </mxCell>
        <mxCell id="TQv8Dwz0qTCDixVT1cA2-51" value="" style="endArrow=classic;html=1;exitX=0;exitY=0.5;exitDx=0;exitDy=0;entryX=0;entryY=0.5;entryDx=0;entryDy=0;" edge="1" parent="1" source="TQv8Dwz0qTCDixVT1cA2-31" target="TQv8Dwz0qTCDixVT1cA2-47">
          <mxGeometry width="50" height="50" relative="1" as="geometry">
            <mxPoint x="507" y="920" as="sourcePoint" />
            <mxPoint x="557" y="870" as="targetPoint" />
            <Array as="points">
              <mxPoint x="247" y="860" />
              <mxPoint x="247" y="1020" />
            </Array>
          </mxGeometry>
        </mxCell>
        <mxCell id="TQv8Dwz0qTCDixVT1cA2-52" value="" style="endArrow=classic;html=1;exitX=0;exitY=0.5;exitDx=0;exitDy=0;entryX=0;entryY=0.5;entryDx=0;entryDy=0;" edge="1" parent="1" source="TQv8Dwz0qTCDixVT1cA2-32" target="TQv8Dwz0qTCDixVT1cA2-48">
          <mxGeometry width="50" height="50" relative="1" as="geometry">
            <mxPoint x="467" y="1120" as="sourcePoint" />
            <mxPoint x="517" y="1070" as="targetPoint" />
            <Array as="points">
              <mxPoint x="447" y="860" />
              <mxPoint x="447" y="940" />
            </Array>
          </mxGeometry>
        </mxCell>
        <mxCell id="TQv8Dwz0qTCDixVT1cA2-53" value="" style="endArrow=classic;html=1;entryX=0;entryY=0.5;entryDx=0;entryDy=0;exitX=0;exitY=0.5;exitDx=0;exitDy=0;" edge="1" parent="1" source="TQv8Dwz0qTCDixVT1cA2-33" target="TQv8Dwz0qTCDixVT1cA2-49">
          <mxGeometry width="50" height="50" relative="1" as="geometry">
            <mxPoint x="437" y="920" as="sourcePoint" />
            <mxPoint x="487" y="870" as="targetPoint" />
            <Array as="points">
              <mxPoint x="647" y="860" />
              <mxPoint x="647" y="940" />
            </Array>
          </mxGeometry>
        </mxCell>
        <mxCell id="TQv8Dwz0qTCDixVT1cA2-56" value="Đăng nhập" style="rounded=1;whiteSpace=wrap;html=1;" vertex="1" parent="1">
          <mxGeometry x="80" y="480" width="120" height="60" as="geometry" />
        </mxCell>
        <mxCell id="TQv8Dwz0qTCDixVT1cA2-57" value="" style="endArrow=classic;html=1;exitX=0;exitY=0.5;exitDx=0;exitDy=0;" edge="1" parent="1" source="TQv8Dwz0qTCDixVT1cA2-2">
          <mxGeometry width="50" height="50" relative="1" as="geometry">
            <mxPoint x="410" y="400" as="sourcePoint" />
            <mxPoint x="80" y="510" as="targetPoint" />
            <Array as="points">
              <mxPoint x="10" y="190" />
              <mxPoint x="10" y="510" />
            </Array>
          </mxGeometry>
        </mxCell>
        <mxCell id="TQv8Dwz0qTCDixVT1cA2-58" value="Tạo thông báo" style="rounded=1;whiteSpace=wrap;html=1;fillColor=#dae8fc;strokeColor=#6c8ebf;" vertex="1" parent="1">
          <mxGeometry x="507" y="990" width="120" height="60" as="geometry" />
        </mxCell>
        <mxCell id="TQv8Dwz0qTCDixVT1cA2-59" value="" style="endArrow=classic;html=1;exitX=0;exitY=0.5;exitDx=0;exitDy=0;entryX=0;entryY=0.5;entryDx=0;entryDy=0;" edge="1" parent="1" source="TQv8Dwz0qTCDixVT1cA2-32" target="TQv8Dwz0qTCDixVT1cA2-58">
          <mxGeometry width="50" height="50" relative="1" as="geometry">
            <mxPoint x="417" y="830" as="sourcePoint" />
            <mxPoint x="467" y="780" as="targetPoint" />
            <Array as="points">
              <mxPoint x="447" y="860" />
              <mxPoint x="447" y="1020" />
            </Array>
          </mxGeometry>
        </mxCell>
        <mxCell id="TQv8Dwz0qTCDixVT1cA2-61" value="&lt;span style=&quot;font-size: 15px&quot;&gt;Web - Giảng viên&lt;/span&gt;" style="rounded=0;whiteSpace=wrap;html=1;" vertex="1" parent="1">
          <mxGeometry x="1270" y="560" width="270" height="80" as="geometry" />
        </mxCell>
        <mxCell id="TQv8Dwz0qTCDixVT1cA2-62" value="Xử lý thông tin giảng viên" style="rounded=0;whiteSpace=wrap;html=1;" vertex="1" parent="1">
          <mxGeometry x="1040" y="740" width="120" height="60" as="geometry" />
        </mxCell>
        <mxCell id="TQv8Dwz0qTCDixVT1cA2-63" value="Xử lý lịch giảng dạy" style="rounded=0;whiteSpace=wrap;html=1;" vertex="1" parent="1">
          <mxGeometry x="1240" y="740" width="120" height="60" as="geometry" />
        </mxCell>
        <mxCell id="TQv8Dwz0qTCDixVT1cA2-64" value="Xử lý thông báo" style="rounded=0;whiteSpace=wrap;html=1;" vertex="1" parent="1">
          <mxGeometry x="1440" y="740" width="120" height="60" as="geometry" />
        </mxCell>
        <mxCell id="TQv8Dwz0qTCDixVT1cA2-65" value="Xử lý lịch thi" style="rounded=0;whiteSpace=wrap;html=1;" vertex="1" parent="1">
          <mxGeometry x="1640" y="740" width="120" height="60" as="geometry" />
        </mxCell>
        <mxCell id="TQv8Dwz0qTCDixVT1cA2-66" value="Đăng nhập" style="rounded=1;whiteSpace=wrap;html=1;" vertex="1" parent="1">
          <mxGeometry x="1080" y="900" width="120" height="60" as="geometry" />
        </mxCell>
        <mxCell id="TQv8Dwz0qTCDixVT1cA2-67" value="" style="endArrow=classic;html=1;exitX=0;exitY=0.5;exitDx=0;exitDy=0;entryX=0;entryY=0.5;entryDx=0;entryDy=0;" edge="1" parent="1" source="TQv8Dwz0qTCDixVT1cA2-62" target="TQv8Dwz0qTCDixVT1cA2-66">
          <mxGeometry width="50" height="50" relative="1" as="geometry">
            <mxPoint x="1390" y="930" as="sourcePoint" />
            <mxPoint x="1440" y="880" as="targetPoint" />
            <Array as="points">
              <mxPoint x="1010" y="770" />
              <mxPoint x="1010" y="930" />
            </Array>
          </mxGeometry>
        </mxCell>
        <mxCell id="TQv8Dwz0qTCDixVT1cA2-68" value="" style="endArrow=classic;html=1;entryX=0.5;entryY=0;entryDx=0;entryDy=0;" edge="1" parent="1" target="TQv8Dwz0qTCDixVT1cA2-62">
          <mxGeometry width="50" height="50" relative="1" as="geometry">
            <mxPoint x="1410" y="639.9999999999998" as="sourcePoint" />
            <mxPoint x="1350" y="670" as="targetPoint" />
            <Array as="points">
              <mxPoint x="1410" y="700" />
              <mxPoint x="1100" y="700" />
            </Array>
          </mxGeometry>
        </mxCell>
        <mxCell id="TQv8Dwz0qTCDixVT1cA2-69" value="" style="endArrow=classic;html=1;entryX=0.5;entryY=0;entryDx=0;entryDy=0;exitX=0.516;exitY=1.016;exitDx=0;exitDy=0;exitPerimeter=0;" edge="1" parent="1" source="TQv8Dwz0qTCDixVT1cA2-61" target="TQv8Dwz0qTCDixVT1cA2-63">
          <mxGeometry width="50" height="50" relative="1" as="geometry">
            <mxPoint x="1300" y="720" as="sourcePoint" />
            <mxPoint x="1350" y="670" as="targetPoint" />
            <Array as="points">
              <mxPoint x="1409" y="700" />
              <mxPoint x="1300" y="700" />
            </Array>
          </mxGeometry>
        </mxCell>
        <mxCell id="TQv8Dwz0qTCDixVT1cA2-70" value="" style="endArrow=classic;html=1;entryX=0.5;entryY=0;entryDx=0;entryDy=0;" edge="1" parent="1" target="TQv8Dwz0qTCDixVT1cA2-64">
          <mxGeometry width="50" height="50" relative="1" as="geometry">
            <mxPoint x="1410" y="639.9999999999998" as="sourcePoint" />
            <mxPoint x="1350" y="670" as="targetPoint" />
            <Array as="points">
              <mxPoint x="1410" y="700" />
              <mxPoint x="1500" y="700" />
            </Array>
          </mxGeometry>
        </mxCell>
        <mxCell id="TQv8Dwz0qTCDixVT1cA2-71" value="" style="endArrow=classic;html=1;exitX=0.52;exitY=1.039;exitDx=0;exitDy=0;entryX=0.5;entryY=0;entryDx=0;entryDy=0;exitPerimeter=0;" edge="1" parent="1" source="TQv8Dwz0qTCDixVT1cA2-61" target="TQv8Dwz0qTCDixVT1cA2-65">
          <mxGeometry width="50" height="50" relative="1" as="geometry">
            <mxPoint x="1570" y="720" as="sourcePoint" />
            <mxPoint x="1620" y="670" as="targetPoint" />
            <Array as="points">
              <mxPoint x="1410" y="700" />
              <mxPoint x="1700" y="700" />
            </Array>
          </mxGeometry>
        </mxCell>
        <mxCell id="TQv8Dwz0qTCDixVT1cA2-72" value="Nhận lịch giảng dạy" style="rounded=1;whiteSpace=wrap;html=1;" vertex="1" parent="1">
          <mxGeometry x="1280" y="820" width="120" height="60" as="geometry" />
        </mxCell>
        <mxCell id="TQv8Dwz0qTCDixVT1cA2-73" value="Thay đổi lịch dạy" style="rounded=1;whiteSpace=wrap;html=1;" vertex="1" parent="1">
          <mxGeometry x="1280" y="980" width="120" height="60" as="geometry" />
        </mxCell>
        <mxCell id="TQv8Dwz0qTCDixVT1cA2-74" value="Nhận thông báo" style="rounded=1;whiteSpace=wrap;html=1;" vertex="1" parent="1">
          <mxGeometry x="1480" y="820" width="120" height="60" as="geometry" />
        </mxCell>
        <mxCell id="TQv8Dwz0qTCDixVT1cA2-75" value="Nhận lịch thi" style="rounded=1;whiteSpace=wrap;html=1;fillColor=#dae8fc;strokeColor=#6c8ebf;" vertex="1" parent="1">
          <mxGeometry x="1680" y="820" width="120" height="60" as="geometry" />
        </mxCell>
        <mxCell id="TQv8Dwz0qTCDixVT1cA2-76" value="" style="endArrow=classic;html=1;exitX=0;exitY=0.5;exitDx=0;exitDy=0;entryX=0;entryY=0.5;entryDx=0;entryDy=0;" edge="1" parent="1" source="TQv8Dwz0qTCDixVT1cA2-63" target="TQv8Dwz0qTCDixVT1cA2-72">
          <mxGeometry width="50" height="50" relative="1" as="geometry">
            <mxPoint x="1480" y="830" as="sourcePoint" />
            <mxPoint x="1530" y="780" as="targetPoint" />
            <Array as="points">
              <mxPoint x="1220" y="770" />
              <mxPoint x="1220" y="850" />
            </Array>
          </mxGeometry>
        </mxCell>
        <mxCell id="TQv8Dwz0qTCDixVT1cA2-77" value="" style="endArrow=classic;html=1;exitX=0;exitY=0.5;exitDx=0;exitDy=0;entryX=0;entryY=0.5;entryDx=0;entryDy=0;" edge="1" parent="1" source="TQv8Dwz0qTCDixVT1cA2-63" target="TQv8Dwz0qTCDixVT1cA2-73">
          <mxGeometry width="50" height="50" relative="1" as="geometry">
            <mxPoint x="1480" y="830" as="sourcePoint" />
            <mxPoint x="1530" y="780" as="targetPoint" />
            <Array as="points">
              <mxPoint x="1220" y="770" />
              <mxPoint x="1220" y="930" />
              <mxPoint x="1220" y="1010" />
            </Array>
          </mxGeometry>
        </mxCell>
        <mxCell id="TQv8Dwz0qTCDixVT1cA2-78" value="" style="endArrow=classic;html=1;exitX=0;exitY=0.5;exitDx=0;exitDy=0;entryX=0;entryY=0.5;entryDx=0;entryDy=0;" edge="1" parent="1" source="TQv8Dwz0qTCDixVT1cA2-64" target="TQv8Dwz0qTCDixVT1cA2-74">
          <mxGeometry width="50" height="50" relative="1" as="geometry">
            <mxPoint x="1440" y="1030" as="sourcePoint" />
            <mxPoint x="1490" y="980" as="targetPoint" />
            <Array as="points">
              <mxPoint x="1420" y="770" />
              <mxPoint x="1420" y="850" />
            </Array>
          </mxGeometry>
        </mxCell>
        <mxCell id="TQv8Dwz0qTCDixVT1cA2-79" value="" style="endArrow=classic;html=1;entryX=0;entryY=0.5;entryDx=0;entryDy=0;exitX=0;exitY=0.5;exitDx=0;exitDy=0;" edge="1" parent="1" source="TQv8Dwz0qTCDixVT1cA2-65" target="TQv8Dwz0qTCDixVT1cA2-75">
          <mxGeometry width="50" height="50" relative="1" as="geometry">
            <mxPoint x="1410" y="830" as="sourcePoint" />
            <mxPoint x="1460" y="780" as="targetPoint" />
            <Array as="points">
              <mxPoint x="1620" y="770" />
              <mxPoint x="1620" y="850" />
            </Array>
          </mxGeometry>
        </mxCell>
        <mxCell id="TQv8Dwz0qTCDixVT1cA2-80" value="Tạo thông báo" style="rounded=1;whiteSpace=wrap;html=1;" vertex="1" parent="1">
          <mxGeometry x="1480" y="900" width="120" height="60" as="geometry" />
        </mxCell>
        <mxCell id="TQv8Dwz0qTCDixVT1cA2-81" value="" style="endArrow=classic;html=1;exitX=0;exitY=0.5;exitDx=0;exitDy=0;entryX=0;entryY=0.5;entryDx=0;entryDy=0;" edge="1" parent="1" source="TQv8Dwz0qTCDixVT1cA2-64" target="TQv8Dwz0qTCDixVT1cA2-80">
          <mxGeometry width="50" height="50" relative="1" as="geometry">
            <mxPoint x="1390" y="740" as="sourcePoint" />
            <mxPoint x="1440" y="690" as="targetPoint" />
            <Array as="points">
              <mxPoint x="1420" y="770" />
              <mxPoint x="1420" y="930" />
            </Array>
          </mxGeometry>
        </mxCell>
        <mxCell id="TQv8Dwz0qTCDixVT1cA2-83" value="Tạo tài khoản" style="rounded=1;whiteSpace=wrap;html=1;" vertex="1" parent="1">
          <mxGeometry x="1080" y="820" width="120" height="60" as="geometry" />
        </mxCell>
        <mxCell id="TQv8Dwz0qTCDixVT1cA2-85" value="" style="endArrow=classic;html=1;exitX=0;exitY=0.5;exitDx=0;exitDy=0;entryX=0;entryY=0.5;entryDx=0;entryDy=0;" edge="1" parent="1" source="TQv8Dwz0qTCDixVT1cA2-62" target="TQv8Dwz0qTCDixVT1cA2-83">
          <mxGeometry width="50" height="50" relative="1" as="geometry">
            <mxPoint x="1330" y="920" as="sourcePoint" />
            <mxPoint x="1380" y="870" as="targetPoint" />
            <Array as="points">
              <mxPoint x="1010" y="770" />
              <mxPoint x="1010" y="850" />
            </Array>
          </mxGeometry>
        </mxCell>
        <mxCell id="TQv8Dwz0qTCDixVT1cA2-86" value="Phân công lịch dạy" style="rounded=1;whiteSpace=wrap;html=1;fillColor=#f8cecc;strokeColor=#b85450;" vertex="1" parent="1">
          <mxGeometry x="1280" y="900" width="120" height="60" as="geometry" />
        </mxCell>
        <mxCell id="TQv8Dwz0qTCDixVT1cA2-87" value="Trưởng bộ môn" style="rounded=1;whiteSpace=wrap;html=1;fillColor=#f8cecc;strokeColor=#b85450;" vertex="1" parent="1">
          <mxGeometry x="1560" y="80" width="120" height="60" as="geometry" />
        </mxCell>
        <mxCell id="TQv8Dwz0qTCDixVT1cA2-88" value="" style="endArrow=classic;html=1;exitX=0;exitY=0.5;exitDx=0;exitDy=0;entryX=0;entryY=0.5;entryDx=0;entryDy=0;" edge="1" parent="1" source="TQv8Dwz0qTCDixVT1cA2-63" target="TQv8Dwz0qTCDixVT1cA2-86">
          <mxGeometry width="50" height="50" relative="1" as="geometry">
            <mxPoint x="1330" y="1000" as="sourcePoint" />
            <mxPoint x="1380" y="950" as="targetPoint" />
            <Array as="points">
              <mxPoint x="1220" y="770" />
              <mxPoint x="1220" y="930" />
            </Array>
          </mxGeometry>
        </mxCell>
        <mxCell id="TQv8Dwz0qTCDixVT1cA2-89" value="Nhận yêu cầu" style="rounded=1;whiteSpace=wrap;html=1;fillColor=#f8cecc;strokeColor=#b85450;" vertex="1" parent="1">
          <mxGeometry x="1320" y="1140" width="120" height="60" as="geometry" />
        </mxCell>
        <mxCell id="TQv8Dwz0qTCDixVT1cA2-90" value="Trả lời yêu cầu" style="rounded=1;whiteSpace=wrap;html=1;fillColor=#f8cecc;strokeColor=#b85450;" vertex="1" parent="1">
          <mxGeometry x="1321" y="1220" width="120" height="60" as="geometry" />
        </mxCell>
        <mxCell id="TQv8Dwz0qTCDixVT1cA2-91" value="Gửi yêu cầu" style="rounded=1;whiteSpace=wrap;html=1;" vertex="1" parent="1">
          <mxGeometry x="1320" y="1060" width="120" height="60" as="geometry" />
        </mxCell>
        <mxCell id="TQv8Dwz0qTCDixVT1cA2-92" value="Cập nhật lịch mới" style="rounded=1;whiteSpace=wrap;html=1;" vertex="1" parent="1">
          <mxGeometry x="1321" y="1300" width="120" height="60" as="geometry" />
        </mxCell>
        <mxCell id="TQv8Dwz0qTCDixVT1cA2-93" value="" style="endArrow=classic;html=1;exitX=0;exitY=0.75;exitDx=0;exitDy=0;" edge="1" parent="1" source="TQv8Dwz0qTCDixVT1cA2-73">
          <mxGeometry width="50" height="50" relative="1" as="geometry">
            <mxPoint x="1330" y="1250" as="sourcePoint" />
            <mxPoint x="1320" y="1250" as="targetPoint" />
            <Array as="points">
              <mxPoint x="1260" y="1025" />
              <mxPoint x="1260" y="1250" />
            </Array>
          </mxGeometry>
        </mxCell>
        <mxCell id="TQv8Dwz0qTCDixVT1cA2-94" value="" style="endArrow=classic;html=1;exitX=0;exitY=0.75;exitDx=0;exitDy=0;" edge="1" parent="1" source="TQv8Dwz0qTCDixVT1cA2-73">
          <mxGeometry width="50" height="50" relative="1" as="geometry">
            <mxPoint x="1330" y="1250" as="sourcePoint" />
            <mxPoint x="1320" y="1090" as="targetPoint" />
            <Array as="points">
              <mxPoint x="1260" y="1025" />
              <mxPoint x="1260" y="1090" />
            </Array>
          </mxGeometry>
        </mxCell>
        <mxCell id="TQv8Dwz0qTCDixVT1cA2-95" value="" style="endArrow=classic;html=1;entryX=0;entryY=0.5;entryDx=0;entryDy=0;exitX=0;exitY=0.75;exitDx=0;exitDy=0;" edge="1" parent="1" source="TQv8Dwz0qTCDixVT1cA2-73" target="TQv8Dwz0qTCDixVT1cA2-89">
          <mxGeometry width="50" height="50" relative="1" as="geometry">
            <mxPoint x="1330" y="1250" as="sourcePoint" />
            <mxPoint x="1380" y="1200" as="targetPoint" />
            <Array as="points">
              <mxPoint x="1260" y="1025" />
              <mxPoint x="1260" y="1170" />
            </Array>
          </mxGeometry>
        </mxCell>
        <mxCell id="TQv8Dwz0qTCDixVT1cA2-100" value="" style="endArrow=classic;html=1;exitX=0;exitY=0.75;exitDx=0;exitDy=0;" edge="1" parent="1" source="TQv8Dwz0qTCDixVT1cA2-73">
          <mxGeometry width="50" height="50" relative="1" as="geometry">
            <mxPoint x="1330" y="1250" as="sourcePoint" />
            <mxPoint x="1320" y="1340" as="targetPoint" />
            <Array as="points">
              <mxPoint x="1260" y="1025" />
              <mxPoint x="1260" y="1340" />
            </Array>
          </mxGeometry>
        </mxCell>
        <mxCell id="TQv8Dwz0qTCDixVT1cA2-101" value="Phân công coi thi" style="rounded=1;whiteSpace=wrap;html=1;fillColor=#dae8fc;strokeColor=#6c8ebf;" vertex="1" parent="1">
          <mxGeometry x="1680" y="900" width="120" height="60" as="geometry" />
        </mxCell>
        <mxCell id="TQv8Dwz0qTCDixVT1cA2-102" value="" style="endArrow=classic;html=1;entryX=0;entryY=0.5;entryDx=0;entryDy=0;exitX=0;exitY=0.5;exitDx=0;exitDy=0;" edge="1" parent="1" source="TQv8Dwz0qTCDixVT1cA2-65" target="TQv8Dwz0qTCDixVT1cA2-101">
          <mxGeometry width="50" height="50" relative="1" as="geometry">
            <mxPoint x="1440" y="1000" as="sourcePoint" />
            <mxPoint x="1490" y="950" as="targetPoint" />
            <Array as="points">
              <mxPoint x="1620" y="770" />
              <mxPoint x="1620" y="930" />
            </Array>
          </mxGeometry>
        </mxCell>
        <mxCell id="TQv8Dwz0qTCDixVT1cA2-103" value="Xử lý chương trình học" style="rounded=0;whiteSpace=wrap;html=1;fillColor=#dae8fc;strokeColor=#6c8ebf;" vertex="1" parent="1">
          <mxGeometry x="1050" y="160" width="120" height="60" as="geometry" />
        </mxCell>
        <mxCell id="TQv8Dwz0qTCDixVT1cA2-104" value="Nhận chương trình học" style="rounded=1;whiteSpace=wrap;html=1;fillColor=#dae8fc;strokeColor=#6c8ebf;" vertex="1" parent="1">
          <mxGeometry x="1091" y="240" width="120" height="60" as="geometry" />
        </mxCell>
        <mxCell id="TQv8Dwz0qTCDixVT1cA2-105" value="Nhận thông tin học phần" style="rounded=1;whiteSpace=wrap;html=1;fillColor=#dae8fc;strokeColor=#6c8ebf;" vertex="1" parent="1">
          <mxGeometry x="1091" y="320" width="120" height="60" as="geometry" />
        </mxCell>
        <mxCell id="TQv8Dwz0qTCDixVT1cA2-106" value="" style="endArrow=classic;html=1;exitX=0;exitY=0.5;exitDx=0;exitDy=0;entryX=0;entryY=0.5;entryDx=0;entryDy=0;" edge="1" parent="1" source="TQv8Dwz0qTCDixVT1cA2-103" target="TQv8Dwz0qTCDixVT1cA2-104">
          <mxGeometry width="50" height="50" relative="1" as="geometry">
            <mxPoint x="1050" y="380" as="sourcePoint" />
            <mxPoint x="1100" y="330" as="targetPoint" />
            <Array as="points">
              <mxPoint x="1030" y="190" />
              <mxPoint x="1030" y="270" />
            </Array>
          </mxGeometry>
        </mxCell>
        <mxCell id="TQv8Dwz0qTCDixVT1cA2-107" value="" style="endArrow=classic;html=1;entryX=0;entryY=0.5;entryDx=0;entryDy=0;exitX=0;exitY=0.5;exitDx=0;exitDy=0;" edge="1" parent="1" source="TQv8Dwz0qTCDixVT1cA2-103" target="TQv8Dwz0qTCDixVT1cA2-105">
          <mxGeometry width="50" height="50" relative="1" as="geometry">
            <mxPoint x="1050" y="380" as="sourcePoint" />
            <mxPoint x="1100" y="330" as="targetPoint" />
            <Array as="points">
              <mxPoint x="1030" y="190" />
              <mxPoint x="1030" y="350" />
            </Array>
          </mxGeometry>
        </mxCell>
        <mxCell id="TQv8Dwz0qTCDixVT1cA2-108" value="" style="endArrow=classic;html=1;entryX=0.5;entryY=0;entryDx=0;entryDy=0;" edge="1" parent="1" target="TQv8Dwz0qTCDixVT1cA2-103">
          <mxGeometry width="50" height="50" relative="1" as="geometry">
            <mxPoint x="500" y="80" as="sourcePoint" />
            <mxPoint x="820" y="230" as="targetPoint" />
            <Array as="points">
              <mxPoint x="500" y="120" />
              <mxPoint x="1110" y="120" />
            </Array>
          </mxGeometry>
        </mxCell>
        <mxCell id="TQv8Dwz0qTCDixVT1cA2-109" value="Xử lý học phí" style="rounded=0;whiteSpace=wrap;html=1;" vertex="1" parent="1">
          <mxGeometry x="1261" y="160" width="120" height="60" as="geometry" />
        </mxCell>
        <mxCell id="TQv8Dwz0qTCDixVT1cA2-111" value="Nhận học phí" style="rounded=1;whiteSpace=wrap;html=1;" vertex="1" parent="1">
          <mxGeometry x="1301" y="240" width="120" height="60" as="geometry" />
        </mxCell>
        <mxCell id="TQv8Dwz0qTCDixVT1cA2-112" value="" style="endArrow=classic;html=1;entryX=0;entryY=0.5;entryDx=0;entryDy=0;exitX=0;exitY=0.5;exitDx=0;exitDy=0;" edge="1" parent="1" source="TQv8Dwz0qTCDixVT1cA2-109" target="TQv8Dwz0qTCDixVT1cA2-111">
          <mxGeometry width="50" height="50" relative="1" as="geometry">
            <mxPoint x="1111" y="280" as="sourcePoint" />
            <mxPoint x="1161" y="230" as="targetPoint" />
            <Array as="points">
              <mxPoint x="1241" y="190" />
              <mxPoint x="1241" y="270" />
            </Array>
          </mxGeometry>
        </mxCell>
        <mxCell id="TQv8Dwz0qTCDixVT1cA2-113" value="" style="endArrow=classic;html=1;entryX=0.5;entryY=0;entryDx=0;entryDy=0;exitX=0.5;exitY=1;exitDx=0;exitDy=0;" edge="1" parent="1" source="TQv8Dwz0qTCDixVT1cA2-1" target="TQv8Dwz0qTCDixVT1cA2-109">
          <mxGeometry width="50" height="50" relative="1" as="geometry">
            <mxPoint x="640" y="90" as="sourcePoint" />
            <mxPoint x="1220" y="230" as="targetPoint" />
            <Array as="points">
              <mxPoint x="500" y="120" />
              <mxPoint x="1321" y="120" />
            </Array>
          </mxGeometry>
        </mxCell>
        <mxCell id="TQv8Dwz0qTCDixVT1cA2-114" value="Xử lý chương trình học" style="rounded=0;whiteSpace=wrap;html=1;fillColor=#dae8fc;strokeColor=#6c8ebf;" vertex="1" parent="1">
          <mxGeometry x="1880" y="740" width="120" height="60" as="geometry" />
        </mxCell>
        <mxCell id="TQv8Dwz0qTCDixVT1cA2-115" value="Nhập chương trình học" style="rounded=1;whiteSpace=wrap;html=1;fillColor=#dae8fc;strokeColor=#6c8ebf;" vertex="1" parent="1">
          <mxGeometry x="1921" y="820" width="120" height="60" as="geometry" />
        </mxCell>
        <mxCell id="TQv8Dwz0qTCDixVT1cA2-116" value="Nhập thông tin học phần" style="rounded=1;whiteSpace=wrap;html=1;fillColor=#dae8fc;strokeColor=#6c8ebf;" vertex="1" parent="1">
          <mxGeometry x="1921" y="900" width="120" height="60" as="geometry" />
        </mxCell>
        <mxCell id="TQv8Dwz0qTCDixVT1cA2-117" value="" style="endArrow=classic;html=1;exitX=0;exitY=0.5;exitDx=0;exitDy=0;entryX=0;entryY=0.5;entryDx=0;entryDy=0;" edge="1" parent="1" source="TQv8Dwz0qTCDixVT1cA2-114" target="TQv8Dwz0qTCDixVT1cA2-115">
          <mxGeometry width="50" height="50" relative="1" as="geometry">
            <mxPoint x="1880" y="960" as="sourcePoint" />
            <mxPoint x="1930" y="910" as="targetPoint" />
            <Array as="points">
              <mxPoint x="1860" y="770" />
              <mxPoint x="1860" y="850" />
            </Array>
          </mxGeometry>
        </mxCell>
        <mxCell id="TQv8Dwz0qTCDixVT1cA2-118" value="" style="endArrow=classic;html=1;entryX=0;entryY=0.5;entryDx=0;entryDy=0;exitX=0;exitY=0.5;exitDx=0;exitDy=0;" edge="1" parent="1" source="TQv8Dwz0qTCDixVT1cA2-114" target="TQv8Dwz0qTCDixVT1cA2-116">
          <mxGeometry width="50" height="50" relative="1" as="geometry">
            <mxPoint x="1880" y="960" as="sourcePoint" />
            <mxPoint x="1930" y="910" as="targetPoint" />
            <Array as="points">
              <mxPoint x="1860" y="770" />
              <mxPoint x="1860" y="930" />
            </Array>
          </mxGeometry>
        </mxCell>
        <mxCell id="TQv8Dwz0qTCDixVT1cA2-119" value="" style="endArrow=classic;html=1;entryX=0.5;entryY=0;entryDx=0;entryDy=0;" edge="1" parent="1" target="TQv8Dwz0qTCDixVT1cA2-114">
          <mxGeometry width="50" height="50" relative="1" as="geometry">
            <mxPoint x="1410" y="640" as="sourcePoint" />
            <mxPoint x="1610" y="620" as="targetPoint" />
            <Array as="points">
              <mxPoint x="1410" y="700" />
              <mxPoint x="1940" y="700" />
            </Array>
          </mxGeometry>
        </mxCell>
        <mxCell id="TQv8Dwz0qTCDixVT1cA2-120" value="Đề xuất" style="rounded=1;whiteSpace=wrap;html=1;fillColor=#dae8fc;strokeColor=#6c8ebf;" vertex="1" parent="1">
          <mxGeometry x="1560" y="160" width="120" height="60" as="geometry" />
        </mxCell>
      </root>
    </mxGraphModel>
  </diagram>
</mxfile>
